<svg xmlns="http://www.w3.org/2000/svg" width="11" height="14" viewBox="0 0 11 14">
    <g fill="#0072CE" fill-rule="nonzero">
        <path d="M8.888 6.1l-.592-.683a.446.446 0 0 0-.633-.041L5.898 6.94V.455A.452.452 0 0 0 5.45 0h-.898a.452.452 0 0 0-.45.455V6.94L2.338 5.376a.446.446 0 0 0-.633.041l-.592.681a.459.459 0 0 0 .041.643l3.552 3.146c.17.15.422.15.591 0l3.55-3.146a.458.458 0 0 0 .042-.642zM10.542 13H.458c-.253 0-.458.112-.458.25v.5c0 .138.205.25.458.25h10.084c.253 0 .458-.112.458-.25v-.5c0-.138-.205-.25-.458-.25z"/>
    </g>
</svg>
