<svg xmlns="http://www.w3.org/2000/svg" width="142" height="123" viewBox="0 0 142 123">
    <g fill="none" fill-rule="nonzero">
        <path fill="#0072CE" d="M140.65 114.724L75.027 2.506c-1.953-3.341-6.743-3.341-8.696 0L.708 114.724c-1.986 3.397.44 7.685 4.349 7.685H136.3c3.908 0 6.335-4.288 4.349-7.685z"/>
        <g fill="#FFF" transform="translate(66.352 46.356)">
            <ellipse cx="4.688" cy="47.442" rx="4.688" ry="4.708"/>
            <path d="M.006 2.716l2.086 30.42c.091 1.327 1.151 2.355 2.428 2.355h.336c1.276 0 2.336-1.027 2.427-2.354L9.37 2.716C9.47 1.248 8.354 0 6.942 0H2.434C1.022 0-.094 1.248.006 2.716z"/>
        </g>
        <path fill="#FFF" d="M124.858 114.441H16.5a4.25 4.25 0 0 1-3.68-2.136 4.266 4.266 0 0 1 .023-4.261l54.69-93.206a3.617 3.617 0 0 1 3.149-1.8c1.307 0 2.483.673 3.146 1.8l54.687 93.205a4.266 4.266 0 0 1 .024 4.262 4.25 4.25 0 0 1-3.68 2.136zm-110.334-3.075h112.31l-56.155-95.7-56.155 95.7z"/>
    </g>
</svg>
