<?xml version="1.0" encoding="UTF-8"?>
<svg width="120px" height="60px" viewBox="0 0 120 60" version="1.1" xmlns="http://www.w3.org/2000/svg" xmlns:xlink="http://www.w3.org/1999/xlink">
    <!-- Generator: Sketch 46.2 (44496) - http://www.bohemiancoding.com/sketch -->
    <title>ls-claims</title>
    <desc>Created with Sketch.</desc>
    <defs>
        <path d="M20.3123734,11.5276266 L23.5276266,11.5276266 C23.7885112,11.5276266 24,11.7391154 24,12 L24,12 C24,12.2608846 23.7885112,12.4723734 23.5276266,12.4723734 L20.3123734,12.4723734 L20.3123734,12.4723734 C20.0514888,12.4723734 19.84,12.2608846 19.84,12 C19.84,11.7391154 20.0514888,11.5276266 20.3123734,11.5276266 L20.3123734,11.5276266 Z M20.4129498,8.52048524 L22.496578,7.10336492 C22.6883707,6.97292259 22.9336151,7.05033286 23.0443466,7.27626559 C23.1550782,7.50219833 23.0893652,7.79109739 22.8975725,7.92153971 L20.8139442,9.33866004 C20.6221516,9.46910236 20.3769072,9.39169209 20.2661757,9.16575936 C20.1554441,8.93982662 20.2211571,8.65092756 20.4129498,8.52048524 Z M20.8139442,14.66134 L22.8975725,16.0784603 C23.0893652,16.2089026 23.1550782,16.4978017 23.0443466,16.7237344 C22.9336151,16.9496671 22.6883707,17.0270774 22.496578,16.8966351 L20.4129498,15.4795148 C20.2211571,15.3490724 20.1554441,15.0601734 20.2661757,14.8342406 C20.3769072,14.6083079 20.6221516,14.5308976 20.8139442,14.66134 Z" id="path-1"></path>
        <path d="M20.3123734,11.5276266 L23.5276266,11.5276266 C23.7885112,11.5276266 24,11.7391154 24,12 L24,12 C24,12.2608846 23.7885112,12.4723734 23.5276266,12.4723734 L20.3123734,12.4723734 L20.3123734,12.4723734 C20.0514888,12.4723734 19.84,12.2608846 19.84,12 C19.84,11.7391154 20.0514888,11.5276266 20.3123734,11.5276266 L20.3123734,11.5276266 Z M20.4129498,8.52048524 L22.496578,7.10336492 C22.6883707,6.97292259 22.9336151,7.05033286 23.0443466,7.27626559 C23.1550782,7.50219833 23.0893652,7.79109739 22.8975725,7.92153971 L20.8139442,9.33866004 C20.6221516,9.46910236 20.3769072,9.39169209 20.2661757,9.16575936 C20.1554441,8.93982662 20.2211571,8.65092756 20.4129498,8.52048524 Z M20.8139442,14.66134 L22.8975725,16.0784603 C23.0893652,16.2089026 23.1550782,16.4978017 23.0443466,16.7237344 C22.9336151,16.9496671 22.6883707,17.0270774 22.496578,16.8966351 L20.4129498,15.4795148 C20.2211571,15.3490724 20.1554441,15.0601734 20.2661757,14.8342406 C20.3769072,14.6083079 20.6221516,14.5308976 20.8139442,14.66134 Z" id="path-2"></path>
    </defs>
    <g id="Page-1" stroke="none" stroke-width="1" fill="none" fill-rule="evenodd">
        <g id="Artboard" transform="translate(-54.000000, -181.000000)">
            <g id="claims" transform="translate(54.000000, 181.000000)">
                <g id="Account-Look-Up" transform="translate(18.000000, 18.000000)">
                    <g id="Create-Account" stroke-width="1" fill-rule="evenodd">
                        <rect id="Rectangle" fill="#FFFFFF" opacity="0" x="0" y="0" width="24" height="24"></rect>
                        <g id="header--notifciation" transform="translate(3.200000, 7.040000)">
                            <g id="Layer_1">
                                <g id="_x35_.-Headers-_x26_-Navigation"></g>
                            </g>
                        </g>
                    </g>
                    <path d="M4.99300972,15.3256293 L4.98,17.9793007 C4.98,18.3122718 5.22730051,18.5802797 5.58826848,18.5802797 L10.3483442,18.5802797 C10.6683198,18.4493645 10.906678,18.1695309 10.906678,17.8416783 L10.906678,16.4717034 L4.99300972,15.3256293 Z" id="Combined-Shape" stroke="#FFFFFF" stroke-width="1"></path>
                    <path d="M3.09631555,9.906758 L3.09631555,9.906758 L3.09631555,9.906758 C3.09631555,9.36925128 2.66058026,8.93351599 2.12307354,8.93351599 L1.96,8.93351599 L1.96,8.93351599 C1.40771525,8.93351599 0.96,9.38123124 0.96,9.93351599 L0.96,15.3269402 L0.96,15.3269402 C0.96,15.8792249 1.40771525,16.3269402 1.96,16.3269402 L2.29286299,16.3269402 L2.29286299,16.3269402 C2.73660727,16.3269402 3.09633308,15.9672144 3.09633308,15.5234701 L3.09633308,15.5234701 L3.09633308,15.5234701 C3.09633308,15.1547397 3.3952481,14.8558247 3.76397846,14.8558247 C3.80498604,14.8558247 3.8459064,14.8596028 3.88622075,14.8671111 L17.3769054,17.3796569 L17.3769054,17.3796569 C17.9198539,17.4807773 18.4419749,17.1226048 18.5430953,16.5796562 C18.5543412,16.5192733 18.56,16.4579828 18.56,16.3965616 L18.56,7.43747252 L18.56,7.43747252 C18.56,6.88518777 18.1122847,6.43747252 17.56,6.43747252 C17.4594853,6.43747252 17.359545,6.45262684 17.2635486,6.48242457 L4.02580833,10.5914811 L4.02580833,10.5914811 C3.64764621,10.7088644 3.24592728,10.4974614 3.12854399,10.1192992 C3.10718046,10.0504745 3.09631555,9.97882217 3.09631555,9.906758 Z" id="Path-4" stroke="#FFFFFF" stroke-width="2"></path>
                    <g id="Combined-Shape">
                        <use fill="#FFFFFF" fill-rule="evenodd" xlink:href="#path-1"></use>
                        <path stroke="#FFFFFF" stroke-width="2" d="M20.3123734,12.5276266 L23.5276266,12.5276266 C23.2362265,12.5276266 23,12.2914001 23,12 C23,11.7085999 23.2362265,11.4723734 23.5276266,11.4723734 L20.3123734,11.4723734 C20.6037735,11.4723734 20.84,11.7085999 20.84,12 C20.84,12.2914001 20.6037735,12.5276266 20.3123734,12.5276266 Z M20.9753285,9.34736503 L23.0589567,7.93024471 C22.7285445,8.1549652 22.2941597,8.01785362 22.1463948,7.71635942 C22.0443741,7.50819992 22.1024291,7.25296814 22.3351938,7.09465992 L20.2515655,8.51178025 C20.5819778,8.28705975 21.0163626,8.42417133 21.1641274,8.72566553 C21.2661482,8.93382503 21.2080931,9.18905681 20.9753285,9.34736503 Z M20.2515655,15.4882198 L22.3351938,16.9053401 C22.1024291,16.7470319 22.0443741,16.4918001 22.1463948,16.2836406 C22.2941597,15.9821464 22.7285445,15.8450348 23.0589567,16.0697553 L20.9753285,14.652635 C21.2080931,14.8109432 21.2661482,15.066175 21.1641274,15.2743345 C21.0163626,15.5758287 20.5819778,15.7129402 20.2515655,15.4882198 Z"></path>
                    </g>
                </g>
                <g id="Account-Look-Up" transform="translate(78.000000, 18.000000)">
                    <g id="Create-Account" stroke-width="1" fill-rule="evenodd">
                        <rect id="Rectangle" fill="#FFFFFF" opacity="0" x="0" y="0" width="24" height="24"></rect>
                        <g id="header--notifciation" transform="translate(3.200000, 7.040000)">
                            <g id="Layer_1">
                                <g id="_x35_.-Headers-_x26_-Navigation"></g>
                            </g>
                        </g>
                    </g>
                    <path d="M4.99300972,15.3256293 L4.98,17.9793007 C4.98,18.3122718 5.22730051,18.5802797 5.58826848,18.5802797 L10.3483442,18.5802797 C10.6683198,18.4493645 10.906678,18.1695309 10.906678,17.8416783 L10.906678,16.4717034 L4.99300972,15.3256293 Z" id="Combined-Shape" stroke="#FFFFFF" stroke-width="1"></path>
                    <path d="M3.09631555,9.906758 L3.09631555,9.906758 L3.09631555,9.906758 C3.09631555,9.36925128 2.66058026,8.93351599 2.12307354,8.93351599 L1.96,8.93351599 L1.96,8.93351599 C1.40771525,8.93351599 0.96,9.38123124 0.96,9.93351599 L0.96,15.3269402 L0.96,15.3269402 C0.96,15.8792249 1.40771525,16.3269402 1.96,16.3269402 L2.29286299,16.3269402 L2.29286299,16.3269402 C2.73660727,16.3269402 3.09633308,15.9672144 3.09633308,15.5234701 L3.09633308,15.5234701 L3.09633308,15.5234701 C3.09633308,15.1547397 3.3952481,14.8558247 3.76397846,14.8558247 C3.80498604,14.8558247 3.8459064,14.8596028 3.88622075,14.8671111 L17.3769054,17.3796569 L17.3769054,17.3796569 C17.9198539,17.4807773 18.4419749,17.1226048 18.5430953,16.5796562 C18.5543412,16.5192733 18.56,16.4579828 18.56,16.3965616 L18.56,7.43747252 L18.56,7.43747252 C18.56,6.88518777 18.1122847,6.43747252 17.56,6.43747252 C17.4594853,6.43747252 17.359545,6.45262684 17.2635486,6.48242457 L4.02580833,10.5914811 L4.02580833,10.5914811 C3.64764621,10.7088644 3.24592728,10.4974614 3.12854399,10.1192992 C3.10718046,10.0504745 3.09631555,9.97882217 3.09631555,9.906758 Z" id="Path-4" stroke="#FFFFFF" stroke-width="2" fill="#FFFFFF" fill-rule="evenodd"></path>
                    <g id="Combined-Shape">
                        <use fill="#FFFFFF" fill-rule="evenodd" xlink:href="#path-2"></use>
                        <path stroke="#FFFFFF" stroke-width="2" d="M20.3123734,12.5276266 L23.5276266,12.5276266 C23.2362265,12.5276266 23,12.2914001 23,12 C23,11.7085999 23.2362265,11.4723734 23.5276266,11.4723734 L20.3123734,11.4723734 C20.6037735,11.4723734 20.84,11.7085999 20.84,12 C20.84,12.2914001 20.6037735,12.5276266 20.3123734,12.5276266 Z M20.9753285,9.34736503 L23.0589567,7.93024471 C22.7285445,8.1549652 22.2941597,8.01785362 22.1463948,7.71635942 C22.0443741,7.50819992 22.1024291,7.25296814 22.3351938,7.09465992 L20.2515655,8.51178025 C20.5819778,8.28705975 21.0163626,8.42417133 21.1641274,8.72566553 C21.2661482,8.93382503 21.2080931,9.18905681 20.9753285,9.34736503 Z M20.2515655,15.4882198 L22.3351938,16.9053401 C22.1024291,16.7470319 22.0443741,16.4918001 22.1463948,16.2836406 C22.2941597,15.9821464 22.7285445,15.8450348 23.0589567,16.0697553 L20.9753285,14.652635 C21.2080931,14.8109432 21.2661482,15.066175 21.1641274,15.2743345 C21.0163626,15.5758287 20.5819778,15.7129402 20.2515655,15.4882198 Z"></path>
                    </g>
                </g>
            </g>
        </g>
    </g>
</svg>