<?xml version="1.0" encoding="UTF-8"?>
<svg width="120px" height="60px" viewBox="0 0 120 60" version="1.1" xmlns="http://www.w3.org/2000/svg" xmlns:xlink="http://www.w3.org/1999/xlink">
    <!-- Generator: Sketch 46.2 (44496) - http://www.bohemiancoding.com/sketch -->
    <title>ls-epp</title>
    <desc>Created with Sketch.</desc>
    <defs></defs>
    <g id="Page-1" stroke="none" stroke-width="1" fill="none" fill-rule="evenodd">
        <g id="Artboard" transform="translate(-54.000000, -118.000000)">
            <g id="epp" transform="translate(54.000000, 118.000000)">
                <g id="Account-Look-Up" transform="translate(18.000000, 18.000000)">
                    <rect id="Rectangle" fill="#FFFFFF" opacity="0" x="0" y="0" width="24" height="24"></rect>
                    <g id="EPP-icon" stroke-width="1" transform="translate(3.840000, 2.560000)" stroke="#FFFFFF">
                        <path d="M0.105368284,2.81197084 C4.70681335,2.73571104 8.32012201,0 8.32012201,0 C8.32012201,0 11.9334307,2.73571104 16.5348757,2.81197084 C17.2037815,6.48208366 14.7056056,16.074165 8.32012201,18.88 C1.93376857,16.074165 -0.564407274,6.48208366 0.105368284,2.81197084 Z" id="Fill-1" stroke-width="2"></path>
                        <path d="M16.32,3.2 L3.2,13.76" id="Line-3" stroke-width="2" stroke-linecap="square"></path>
                    </g>
                </g>
                <g id="Account-Look-Up" transform="translate(78.000000, 18.000000)">
                    <rect id="Rectangle" fill="#FFFFFF" opacity="0" x="0" y="0" width="24" height="24"></rect>
                    <g id="Group-12" stroke-width="1" transform="translate(3.520000, 2.560000)">
                        <path d="M0.107394597,2.81197084 C4.79732899,2.73571104 8.48012436,0 8.48012436,0 C8.48012436,0 12.1629197,2.73571104 16.8528541,2.81197084 C17.5346234,6.48208366 14.9884057,16.074165 8.48012436,18.88 C1.97095643,16.074165 -0.57526126,6.48208366 0.107394597,2.81197084 Z" id="Fill-1" stroke="#FFFFFF" stroke-width="2" fill="#FFFFFF"></path>
                        <path d="M17.76,2.72 L2.4,14.88" id="Line-3" stroke="#0072CE" stroke-linecap="square"></path>
                    </g>
                </g>
            </g>
        </g>
    </g>
</svg>