<?xml version="1.0" encoding="UTF-8"?>
<svg width="120px" height="60px" viewBox="0 0 120 60" version="1.1" xmlns="http://www.w3.org/2000/svg" xmlns:xlink="http://www.w3.org/1999/xlink">
    <!-- Generator: Sketch 46.2 (44496) - http://www.bohemiancoding.com/sketch -->
    <title>ls-faq</title>
    <desc>Created with Sketch.</desc>
    <defs></defs>
    <g id="Page-1" stroke="none" stroke-width="1" fill="none" fill-rule="evenodd">
        <g id="Artboard" transform="translate(-54.000000, -313.000000)">
            <g id="faq" transform="translate(54.000000, 313.000000)">
                <g id="ic_home" transform="translate(18.000000, 18.000000)">
                    <g id="Page-1" transform="translate(2.000000, 3.000000)">
                        <path d="M1.00055871,8.60078716 C0.974590803,6.17654361 1.85506509,4.32540093 3.38473701,2.82045063 C4.81621779,1.41236245 6.51062361,0.584550094 8.38680477,0.226698384 C11.1580672,-0.302455775 13.8100395,0.0652615219 16.274556,1.64196154 C17.3270677,2.31461513 18.2440593,3.17381798 18.8989374,4.31194786 C20.2947123,6.73977889 20.4123794,9.30124376 18.9703492,11.6734688 C17.8577867,13.5012928 17.8902466,15.2519859 18.4850739,17.1605283 C18.5613547,17.4053742 18.6489963,17.6448389 18.7690979,18 C18.0923094,17.67892 17.5031625,17.3990961 16.9148272,17.1201691 C16.7573967,17.0457288 16.6007778,16.9712884 16.4425359,16.897745 C15.6886551,16.5407901 14.9558733,15.9963892 14.1719672,15.8824865 C13.4213324,15.7721713 12.6155158,16.1102918 11.8348557,16.2493069 C11.7512715,16.2636569 11.6668758,16.2654506 11.5378478,16.2780068 C11.8121338,15.7919025 12.0580174,15.3353949 12.3274344,14.8977216 C12.3842392,14.804447 12.5270627,14.7533253 12.6382378,14.7291098 C13.1908672,14.6062384 13.7443082,14.4797795 14.3026182,14.3990611 C14.4689751,14.3748456 14.6653574,14.4672233 14.8244108,14.5569105 C15.5693651,14.9775432 16.3053929,15.4170102 17.0803726,15.8699303 C16.9781239,15.1344957 16.8653258,14.455564 16.7939141,13.772148 C16.7119529,12.9927667 16.8710063,12.2958975 17.3238217,11.6483564 C17.9243295,10.7918441 18.4023012,9.83667602 18.5499937,8.74608033 C18.8332062,6.65636984 18.1531717,4.94872659 16.7143874,3.61507874 C15.17092,2.18277503 13.3401827,1.48590591 11.3576954,1.26886301 C8.20746392,0.922670633 5.68127364,2.27604966 3.64279307,4.85276135 C3.09422107,5.54514611 2.75339232,6.37295846 2.68279207,7.31646723 C2.67305411,7.45817292 2.57567446,7.64472218 2.46774536,7.7164719 C2.0173645,8.01423322 1.54750771,8.27611969 1.00055871,8.60078716" id="Fill-3" fill="#FFFFFF"></path>
                        <path d="M1.30344402,16.1172703 C1.3819449,15.5194096 1.21585357,14.9689851 0.858054819,14.4594541 C-0.494639287,12.5243809 -0.231041596,10.341494 1.52903076,8.73356766 C4.15757074,6.33231035 9.09321026,6.44272238 11.616807,8.95848107 C13.6751827,11.0121449 13.4140639,13.9384728 10.981363,15.6576291 C9.02958323,17.0365528 6.85221673,17.2761878 4.54759616,16.7920105 C4.26581932,16.7331241 3.92454708,16.7552065 3.65681776,16.8582578 C3.04478634,17.092713 2.137206,17.4732937 0.934076723,18 C1.12798767,17.1510541 1.2511101,16.5234776 1.30344402,16.1172703 Z" id="-g-Fill-1" stroke="#FFFFFF" stroke-width="2"></path>
                    </g>
                </g>
                <g id="ic_home" transform="translate(78.000000, 18.000000)" fill="#FFFFFF">
                    <g id="Page-1" transform="translate(2.000000, 3.000000)">
                        <path d="M1.00055871,8.60078716 C0.974590803,6.17654361 1.85506509,4.32540093 3.38473701,2.82045063 C4.81621779,1.41236245 6.51062361,0.584550094 8.38680477,0.226698384 C11.1580672,-0.302455775 13.8100395,0.0652615219 16.274556,1.64196154 C17.3270677,2.31461513 18.2440593,3.17381798 18.8989374,4.31194786 C20.2947123,6.73977889 20.4123794,9.30124376 18.9703492,11.6734688 C17.8577867,13.5012928 17.8902466,15.2519859 18.4850739,17.1605283 C18.5613547,17.4053742 18.6489963,17.6448389 18.7690979,18 C18.0923094,17.67892 17.5031625,17.3990961 16.9148272,17.1201691 C16.7573967,17.0457288 16.6007778,16.9712884 16.4425359,16.897745 C15.6886551,16.5407901 14.9558733,15.9963892 14.1719672,15.8824865 C13.4213324,15.7721713 12.6155158,16.1102918 11.8348557,16.2493069 C11.7512715,16.2636569 11.6668758,16.2654506 11.5378478,16.2780068 C11.8121338,15.7919025 12.0580174,15.3353949 12.3274344,14.8977216 C12.3842392,14.804447 12.5270627,14.7533253 12.6382378,14.7291098 C13.1908672,14.6062384 13.7443082,14.4797795 14.3026182,14.3990611 C14.4689751,14.3748456 14.6653574,14.4672233 14.8244108,14.5569105 C15.5693651,14.9775432 16.3053929,15.4170102 17.0803726,15.8699303 C16.9781239,15.1344957 16.8653258,14.455564 16.7939141,13.772148 C16.7119529,12.9927667 16.8710063,12.2958975 17.3238217,11.6483564 C17.9243295,10.7918441 18.4023012,9.83667602 18.5499937,8.74608033 C18.8332062,6.65636984 18.1531717,4.94872659 16.7143874,3.61507874 C15.17092,2.18277503 13.3401827,1.48590591 11.3576954,1.26886301 C8.20746392,0.922670633 5.68127364,2.27604966 3.64279307,4.85276135 C3.09422107,5.54514611 2.75339232,6.37295846 2.68279207,7.31646723 C2.67305411,7.45817292 2.57567446,7.64472218 2.46774536,7.7164719 C2.0173645,8.01423322 1.54750771,8.27611969 1.00055871,8.60078716" id="Fill-3"></path>
                        <path d="M1.30344402,16.1172703 C1.3819449,15.5194096 1.21585357,14.9689851 0.858054819,14.4594541 C-0.494639287,12.5243809 -0.231041596,10.341494 1.52903076,8.73356766 C4.15757074,6.33231035 9.09321026,6.44272238 11.616807,8.95848107 C13.6751827,11.0121449 13.4140639,13.9384728 10.981363,15.6576291 C9.02958323,17.0365528 6.85221673,17.2761878 4.54759616,16.7920105 C4.26581932,16.7331241 3.92454708,16.7552065 3.65681776,16.8582578 C3.04478634,17.092713 2.137206,17.4732937 0.934076723,18 C1.12798767,17.1510541 1.2511101,16.5234776 1.30344402,16.1172703 Z" id="-g-Fill-1" stroke="#FFFFFF" stroke-width="2"></path>
                    </g>
                </g>
            </g>
        </g>
    </g>
</svg>