<?xml version="1.0" encoding="UTF-8"?>
<svg width="162px" height="65px" viewBox="0 0 162 65" version="1.1" xmlns="http://www.w3.org/2000/svg" xmlns:xlink="http://www.w3.org/1999/xlink">
    <!-- Generator: Sketch 46.2 (44496) - http://www.bohemiancoding.com/sketch -->
    <title>tt-img</title>
    <desc>Created with Sketch.</desc>
    <defs>
        <path d="M69.6644876,17 L16.4912282,17 C13.734649,17 11.5,19.2352052 11.5,22.0069123 L11.5,49.9930877 C11.5,52.758329 13.7485036,55 16.4912282,55 L151.508772,55 C154.265351,55 156.5,52.7647948 156.5,49.9930877 L156.5,22.0069123 C156.5,19.241671 154.251496,17 151.508772,17 L98.2945366,17 L83.9795121,6 L69.6644876,17 Z" id="path-1"></path>
        <filter x="-7.6%" y="-22.4%" width="117.9%" height="153.1%" filterUnits="objectBoundingBox" id="filter-2">
            <feOffset dx="2" dy="2" in="SourceAlpha" result="shadowOffsetOuter1"></feOffset>
            <feGaussianBlur stdDeviation="4" in="shadowOffsetOuter1" result="shadowBlurOuter1"></feGaussianBlur>
            <feComposite in="shadowBlurOuter1" in2="SourceAlpha" operator="out" result="shadowBlurOuter1"></feComposite>
            <feColorMatrix values="0 0 0 0 0   0 0 0 0 0   0 0 0 0 0  0 0 0 0.25 0" type="matrix" in="shadowBlurOuter1"></feColorMatrix>
        </filter>
    </defs>
    <g id="Page-1" stroke="none" stroke-width="1" fill="none" fill-rule="evenodd">
        <g id="Artboard" transform="translate(-97.000000, -130.000000)">
            <g id="Group-11" transform="translate(96.265625, 129.468750)">
                <g id="Combined-Shape" transform="translate(84.000000, 30.500000) scale(-1, 1) translate(-84.000000, -30.500000) ">
                    <use fill="black" fill-opacity="1" filter="url(#filter-2)" xlink:href="#path-1"></use>
                    <use fill="#FFFFFF" fill-rule="evenodd" xlink:href="#path-1"></use>
                    <path stroke="#0072CE" stroke-width="1" d="M83.9795121,6.63057009 L69.8344071,17.5 L16.4912282,17.5 C14.0088148,17.5 12,19.5133297 12,22.0069123 L12,49.9930877 C12,52.4775325 14.0199979,54.5 16.4912282,54.5 L151.508772,54.5 C153.991185,54.5 156,52.4866703 156,49.9930877 L156,22.0069123 C156,19.5224675 153.980002,17.5 151.508772,17.5 L98.1246171,17.5 L83.9795121,6.63057009 Z"></path>
                </g>
            </g>
        </g>
    </g>
</svg>